<?xml version="1.0" standalone="no"?>
<!DOCTYPE svg PUBLIC "-//W3C//DTD SVG 20010904//EN"
 "http://www.w3.org/TR/2001/REC-SVG-20010904/DTD/svg10.dtd">
<svg version="1.0" xmlns="http://www.w3.org/2000/svg"
 width="392.000000pt" height="392.000000pt" viewBox="0 0 392.000000 392.000000"
 preserveAspectRatio="xMidYMid meet">
<metadata>
Created by potrace 1.11, written by Peter Selinger 2001-2013
</metadata>
<g transform="translate(0.000000,392.000000) scale(0.100000,-0.100000)"
fill="#000000" stroke="none">
<path d="M1956 3648 c-9 -5 -55 -11 -102 -13 -47 -2 -92 -9 -99 -15 -8 -7 -19
-9 -25 -5 -5 3 -10 2 -10 -4 0 -9 -65 -28 -81 -23 -4 0 -14 -7 -24 -18 -9 -10
-23 -16 -31 -13 -8 3 -14 -1 -14 -11 0 -9 -6 -16 -13 -16 -8 0 -28 -16 -45
-35 -18 -19 -45 -41 -60 -49 -25 -13 -72 -64 -70 -76 0 -3 -17 -24 -38 -46
-58 -61 -64 -71 -64 -98 0 -14 -9 -40 -20 -58 -11 -18 -20 -48 -20 -66 0 -18
-7 -63 -15 -100 -8 -37 -17 -103 -20 -147 -3 -44 -7 -96 -9 -115 -10 -75 -9
-112 3 -119 18 -11 4 -35 -32 -54 -46 -25 -62 -67 -62 -162 1 -81 11 -183 23
-220 3 -11 5 -30 3 -42 -1 -13 2 -23 8 -23 5 0 8 -9 6 -20 -3 -14 2 -20 13
-20 13 0 14 -2 4 -8 -7 -5 -11 -15 -8 -23 2 -8 7 -27 10 -42 4 -15 11 -25 16
-22 6 3 10 -1 10 -10 0 -9 5 -13 10 -10 6 3 10 1 10 -4 0 -6 5 -11 12 -11 6 0
8 3 5 7 -4 3 1 15 10 25 13 14 14 19 4 16 -20 -4 -39 71 -21 82 9 6 9 9 -1 13
-11 4 -12 7 -1 15 7 5 12 13 11 18 -1 5 -1 36 0 69 1 46 4 56 13 47 15 -15 28
-15 28 -1 0 5 -4 7 -10 4 -5 -3 -10 1 -10 9 0 9 5 16 11 16 6 0 3 7 -6 16 -9
9 -14 19 -11 21 3 3 12 -2 21 -11 21 -20 32 -21 15 -1 -7 8 -9 15 -4 15 4 0
-1 7 -12 15 -10 8 -14 15 -7 15 6 0 10 8 8 18 -1 9 5 27 14 39 17 20 18 20 29
2 7 -11 9 -31 6 -45 -4 -17 -9 -22 -14 -14 -5 7 -9 2 -12 -14 -3 -15 0 -27 8
-30 17 -7 18 -36 2 -36 -9 0 -9 -3 0 -12 6 -6 8 -17 3 -27 -5 -9 -5 -26 0 -38
10 -27 23 -31 15 -5 -4 12 -1 19 7 19 7 0 13 -9 13 -19 0 -10 -4 -18 -9 -18
-4 0 -5 -4 -2 -10 3 -5 2 -10 -4 -10 -5 0 -11 5 -13 11 -2 7 -8 6 -16 -4 -11
-12 -10 -15 4 -13 9 0 19 -5 22 -13 2 -8 0 -11 -5 -8 -5 3 -9 -4 -10 -16 0
-12 1 -16 4 -9 7 19 23 14 17 -5 -5 -15 -4 -16 5 -3 10 13 12 13 21 0 7 -11
10 -11 10 -2 0 7 -7 15 -15 18 -8 4 -15 11 -15 17 0 6 9 2 21 -9 26 -26 18
-74 -13 -74 -14 0 -18 5 -14 15 3 8 2 15 -3 15 -5 0 -11 -9 -14 -20 -3 -11 -1
-20 3 -20 4 0 7 -22 6 -49 -1 -27 1 -48 5 -45 4 2 9 -15 13 -38 4 -22 9 -39
11 -36 3 3 0 30 -6 61 -5 32 -7 62 -4 67 3 6 0 10 -7 10 -7 0 -4 6 6 12 15 8
21 8 24 0 2 -7 9 -9 15 -5 7 4 8 0 4 -11 -4 -10 -7 -24 -7 -32 0 -9 -5 -12
-11 -8 -8 4 -8 0 0 -15 14 -25 23 -28 14 -3 -6 15 -5 15 10 4 9 -8 20 -11 24
-9 5 3 10 -3 10 -14 1 -10 -1 -19 -5 -19 -4 0 -8 -11 -8 -25 -1 -14 1 -25 5
-25 6 0 10 -26 12 -79 1 -13 -3 -26 -9 -30 -5 -3 -12 -13 -15 -21 -3 -8 -6 -1
-6 16 -1 16 3 34 8 40 6 5 6 24 1 44 -7 29 -8 31 -10 10 -1 -23 -2 -23 -9 -5
-5 11 -5 21 0 23 10 4 0 32 -13 32 -5 0 -6 -4 -3 -10 3 -5 0 -19 -9 -31 -13
-20 -14 -20 -19 -2 -4 15 -5 14 -6 -4 0 -13 -6 -23 -12 -23 -6 0 -9 7 -6 14 4
11 1 13 -10 9 -12 -5 -14 -3 -8 8 7 12 6 12 -7 1 -13 -11 -15 -7 -13 28 1 27
-2 39 -9 37 -6 -3 -9 -11 -7 -18 2 -8 5 -25 6 -39 4 -43 5 -45 15 -30 5 8 10
11 11 5 0 -5 2 -20 3 -32 1 -12 -1 -20 -6 -17 -4 3 -8 0 -8 -5 0 -6 7 -11 15
-11 13 0 13 -4 4 -22 -7 -13 -15 -30 -19 -37 -8 -18 18 -73 31 -65 6 3 7 -22
5 -63 -3 -38 1 -83 7 -101 9 -27 9 -35 -3 -43 -11 -8 -10 -9 8 -4 19 5 22 3
22 -19 0 -14 -4 -26 -8 -26 -5 0 -9 -7 -9 -15 0 -8 5 -11 10 -8 6 4 8 -3 5
-15 -4 -12 -2 -22 2 -22 5 0 8 -9 7 -19 0 -11 -4 -18 -8 -15 -4 2 -10 -7 -13
-21 -4 -14 -11 -25 -16 -25 -6 0 -10 -18 -10 -41 0 -24 -4 -38 -10 -34 -5 3
-10 1 -10 -4 0 -6 -6 -11 -14 -11 -8 0 -17 -7 -20 -16 -9 -23 -8 -24 11 -18
15 5 16 4 3 -5 -12 -9 -13 -11 -1 -11 8 0 11 -3 8 -6 -4 -4 -13 -2 -21 5 -23
19 -61 3 -106 -45 -23 -24 -60 -54 -83 -66 -47 -23 -98 -59 -140 -97 -28 -26
-79 -57 -172 -107 -27 -15 -75 -45 -105 -68 -72 -55 -109 -78 -270 -173 -181
-107 -330 -190 -357 -198 -23 -6 -23 -9 -23 -171 l0 -164 1846 0 1845 0 -6 38
c-3 20 -6 67 -6 104 0 37 -5 70 -10 74 -5 3 -7 9 -4 14 3 5 -1 25 -9 45 -8 19
-15 38 -15 40 -1 24 -26 83 -34 78 -6 -4 -7 -1 -3 6 5 7 0 21 -11 33 -10 11
-17 22 -15 24 8 14 -2 38 -29 68 -18 21 -27 40 -23 47 4 8 3 9 -4 5 -7 -4 -12
-1 -12 6 0 8 -10 22 -22 32 -13 11 -51 46 -86 78 -35 32 -67 56 -73 53 -5 -4
-9 -2 -9 3 0 9 -97 56 -140 68 -14 4 -75 31 -137 60 -61 30 -182 79 -269 109
-86 30 -160 57 -162 60 -9 9 12 24 40 29 14 2 77 5 140 7 74 1 121 7 136 16
l22 13 0 410 0 410 -60 0 c-36 0 -60 -4 -60 -11 0 -6 18 -9 48 -8 46 3 47 3
50 -29 3 -24 0 -31 -11 -26 -12 4 -14 -14 -15 -103 -1 -190 -1 -183 -18 -183
-8 0 -13 -4 -10 -9 4 -5 -10 -5 -32 0 -49 11 -49 11 -49 -7 0 -13 10 -15 54
-12 29 2 53 0 53 -4 0 -5 -26 -8 -57 -9 -49 0 -54 -2 -33 -10 14 -6 40 -9 58
-7 l32 4 0 -156 c-1 -85 -4 -172 -7 -192 l-5 -37 -79 -3 c-48 -2 -79 1 -79 7
0 6 -4 4 -9 -3 -5 -8 -21 -12 -37 -10 -24 2 -29 0 -26 -17 2 -16 1 -17 -7 -5
-7 10 -11 11 -11 3 0 -16 -22 -17 -38 -1 -9 9 -6 14 11 22 12 7 23 22 25 35 3
19 0 22 -20 20 -13 -2 -29 0 -35 4 -7 5 -13 4 -13 0 0 -5 -10 -9 -22 -10 -29
-3 -41 -24 -23 -42 10 -10 18 -11 27 -4 10 8 18 5 31 -13 l18 -24 -41 -1 c-22
-1 -46 -2 -52 -3 -22 -2 -37 -131 -38 -326 -1 -144 -5 -190 -16 -208 -8 -12
-12 -27 -9 -33 4 -5 1 -8 -7 -7 -7 2 -12 -3 -10 -10 1 -7 -5 -15 -13 -18 -8
-4 -15 -15 -15 -25 0 -10 -4 -19 -10 -19 -5 0 -16 -13 -24 -29 -20 -38 -73
-90 -103 -102 -50 -19 -195 -18 -288 2 -49 10 -91 23 -93 29 -2 5 -9 10 -16
10 -7 0 -12 10 -11 23 3 30 15 58 24 53 12 -8 8 68 -3 77 -14 9 11 26 42 28
12 1 28 2 35 3 6 1 18 -2 25 -7 7 -6 12 -6 12 1 0 5 11 10 25 10 13 0 22 -4
20 -9 -3 -4 8 -7 25 -7 17 1 33 -2 37 -5 3 -4 12 -2 20 4 10 9 13 8 13 -1 0
-8 9 -11 25 -8 17 4 25 1 25 -9 0 -8 5 -11 10 -8 6 3 10 22 10 41 0 21 -4 33
-10 29 -5 -3 -10 -1 -10 4 0 6 4 11 9 11 5 0 8 11 7 25 0 14 -5 25 -9 25 -4 0
-3 9 3 20 7 14 7 20 0 20 -14 0 -13 33 3 49 10 11 9 13 -6 8 -16 -6 -16 -4 -2
23 8 16 15 35 15 43 0 8 6 20 14 26 11 9 12 20 4 52 -9 34 -8 42 6 52 16 12
16 14 -3 31 -11 10 -18 22 -16 26 3 4 -7 8 -21 8 -15 0 -30 6 -35 13 -7 12 -9
11 -10 -1 0 -9 -4 -7 -11 8 -6 12 -17 22 -24 22 -16 0 -21 7 -29 50 -6 33 -4
36 26 47 17 7 36 10 40 7 14 -8 70 26 63 38 -5 7 -2 9 9 5 12 -4 14 -2 10 10
-5 13 -1 15 20 11 20 -4 27 -1 28 11 0 14 1 14 7 1 8 -17 32 -25 32 -11 0 5 9
11 20 14 11 3 20 2 20 -2 0 -4 20 -7 44 -7 24 1 42 4 40 8 -3 5 -1 8 5 8 5 0
12 -6 14 -12 3 -7 6 -3 6 10 1 12 5 22 10 22 5 0 8 37 6 81 -2 64 -7 87 -24
110 -12 16 -19 35 -15 41 5 8 2 9 -9 5 -10 -3 -17 -2 -17 4 0 6 -7 17 -16 26
-11 12 -18 13 -27 4 -6 -6 -18 -11 -27 -11 -9 0 -16 -10 -16 -24 -3 -47 -53
-76 -91 -53 -7 5 -13 5 -13 1 0 -3 -6 -2 -12 3 -7 6 -21 9 -30 8 -18 -3 -25
15 -43 101 -9 45 8 80 42 87 15 3 32 3 37 -1 15 -8 56 -9 56 0 0 4 10 -3 23
-15 18 -18 19 -23 7 -29 -11 -5 -11 -7 -2 -7 7 -1 21 3 31 9 13 6 24 5 37 -5
25 -19 34 -19 34 0 0 8 5 15 11 15 5 0 7 5 3 12 -4 7 -3 8 4 4 7 -4 12 -15 12
-24 0 -15 2 -15 10 -2 7 10 10 11 10 2 0 -7 14 1 30 16 27 26 44 82 20 67 -15
-9 -50 18 -49 40 0 11 3 14 6 8 6 -16 43 -17 43 -2 0 6 -7 8 -15 5 -10 -4 -19
2 -24 16 -7 21 -8 20 -15 -7 -6 -23 -9 -26 -17 -14 -5 7 -9 19 -9 24 0 6 5 3
10 -5 14 -21 13 3 -2 35 -12 27 -24 32 -31 13 -3 -7 -6 -3 -6 10 -1 21 -3 22
-23 10 -13 -7 -27 -12 -33 -13 -5 0 -10 -20 -10 -45 -1 -25 -4 -53 -9 -62 -4
-9 -4 -22 0 -29 5 -8 3 -9 -6 -4 -10 6 -12 4 -7 -9 4 -10 7 -20 7 -22 0 -3 5
-2 10 1 6 3 10 1 10 -4 0 -6 -4 -11 -9 -11 -12 0 -41 29 -41 40 0 5 -15 12
-32 16 -48 11 -51 11 -75 -4 -27 -17 -43 -8 -43 23 0 14 -12 34 -30 48 -16 14
-30 32 -30 39 0 9 -3 9 -10 -2 -7 -11 -10 -11 -10 -2 0 7 -4 11 -9 8 -4 -3 -6
6 -3 19 2 14 8 27 12 30 5 3 6 -5 4 -17 -4 -22 -4 -22 6 1 9 20 12 22 28 10
15 -13 16 -12 3 4 -9 11 -12 33 -9 66 4 38 2 47 -7 37 -6 -6 -14 -18 -18 -26
-4 -10 -6 -8 -6 7 -1 12 4 25 10 29 6 3 9 21 7 39 -3 27 -1 32 14 30 19 -4 19
-2 23 57 1 21 -2 35 -6 32 -5 -3 -9 0 -9 5 0 6 5 11 11 11 6 0 8 9 4 23 -5 17
-4 19 4 7 10 -13 11 -13 12 0 5 39 4 46 -11 58 -13 12 -13 13 3 8 10 -3 17 0
17 8 0 32 80 5 81 -28 0 -12 5 -30 10 -41 7 -16 8 -14 4 10 l-6 30 21 -25 c11
-14 20 -34 20 -45 0 -24 64 -83 100 -92 35 -9 117 -10 126 -1 4 4 2 14 -5 22
-9 11 -8 18 5 31 9 9 23 14 30 11 8 -3 11 0 7 10 -3 9 2 14 16 14 12 0 28 6
35 12 11 11 11 15 -3 26 -9 7 -10 11 -3 7 6 -3 12 -1 12 5 0 6 -10 8 -25 4
-20 -5 -25 -2 -25 12 0 15 -2 16 -9 5 -15 -24 -32 -3 -19 24 11 25 69 46 76
27 1 -5 11 -8 22 -5 12 3 23 -3 31 -19 7 -12 13 -26 12 -29 -1 -3 4 -6 12 -6
8 0 12 4 9 9 -3 4 3 8 14 8 10 0 27 9 37 20 10 11 24 20 31 20 8 0 11 6 8 15
-5 12 -11 10 -30 -12 -13 -16 -24 -22 -24 -15 0 7 -4 11 -9 8 -5 -3 -14 1 -21
9 -7 8 -9 15 -4 16 5 0 -2 5 -16 12 -23 10 -22 11 25 17 l50 5 -54 8 c-30 5
-67 15 -82 24 -23 14 -26 20 -21 58 4 38 1 45 -21 59 -15 11 -38 15 -61 13
-20 -2 -36 0 -36 5 0 5 -7 5 -17 -1 -12 -6 -20 -5 -29 7 -15 21 -53 26 -60 7
-4 -8 -11 -15 -16 -15 -6 0 -8 7 -4 15 3 8 0 15 -7 15 -7 0 -18 9 -24 20 -11
16 -10 18 2 14 10 -4 15 1 17 15 0 12 1 27 2 34 1 6 -7 11 -17 11 -15 -2 -16
4 -11 31 4 26 2 35 -13 44 -10 6 -13 11 -6 11 6 0 19 -7 27 -16 14 -14 15 -12
10 14 -5 24 -2 32 16 42 12 6 28 9 36 6 8 -3 14 0 14 7 0 8 4 6 10 -3 7 -12
10 -8 10 15 0 22 -3 26 -10 15 -16 -25 -23 -2 -9 30 8 17 19 28 26 25 14 -5
15 13 3 60 l-8 30 -1 -32 c-1 -21 -6 -32 -13 -30 -8 1 -12 -6 -10 -17 2 -11
-1 -15 -8 -11 -7 4 -9 18 -6 31 4 14 2 24 -4 24 -5 0 -10 -8 -10 -17 0 -16
-14 -10 -16 8 -4 30 -7 31 -15 9 -6 -19 -8 -13 -6 26 1 29 -2 51 -8 51 -6 0
-10 -16 -8 -36 l2 -36 -8 35 c-4 19 -4 43 1 52 5 10 4 19 -2 23 -5 3 -10 -2
-11 -12 0 -11 -5 -7 -11 12 -18 49 -34 60 -63 41 -26 -17 -44 -6 -21 13 7 6
11 21 9 34 -2 12 1 29 7 37 9 13 11 13 20 0 8 -13 10 -12 10 4 0 15 5 17 35
12 28 -6 35 -4 35 8 0 12 8 14 33 10 24 -4 28 -3 17 5 -17 12 -16 12 45 15 17
0 33 6 37 11 9 13 31 13 40 1 4 -6 13 -5 22 3 9 8 16 11 16 8 0 -3 13 -1 30 4
16 6 27 15 24 20 -3 5 0 9 6 9 6 0 8 5 4 12 -4 6 -3 8 3 5 21 -13 60 -15 60
-2 0 7 -7 12 -15 11 -8 0 -17 5 -20 13 -3 9 0 11 9 6 11 -6 11 -5 2 5 -10 10
-15 11 -27 1 -13 -11 -13 -9 -3 12 6 14 16 25 21 24 16 -3 34 -21 30 -29 -2
-4 6 -14 18 -22 17 -12 24 -13 30 -3 6 9 8 9 8 -1 0 -8 7 -11 18 -8 10 4 28
-4 45 -18 32 -27 35 -40 8 -31 -16 5 -18 2 -14 -14 3 -12 11 -17 19 -14 8 3
17 -2 20 -11 3 -9 13 -16 21 -16 8 0 11 -4 8 -10 -3 -5 2 -10 12 -10 11 0 14
-3 7 -8 -7 -5 -6 -15 3 -32 7 -14 13 -19 13 -11 0 8 7 11 20 8 11 -3 20 -1 20
4 0 5 -7 9 -15 9 -8 0 -15 5 -15 10 0 6 6 10 14 10 26 0 26 28 0 34 -13 4 -24
13 -24 22 0 8 5 12 10 9 6 -3 10 1 10 9 0 10 -6 13 -15 10 -10 -4 -15 0 -15
12 0 26 -32 94 -45 94 -12 0 -45 36 -45 49 0 4 -9 16 -19 25 -11 10 -17 24
-15 31 3 7 -3 16 -14 19 -11 4 -23 14 -26 22 -3 8 -10 13 -15 10 -5 -3 -7 4
-3 16 3 13 1 19 -5 15 -15 -10 -62 15 -69 36 -3 11 -12 16 -20 13 -8 -3 -14
-2 -14 3 0 13 -50 35 -75 33 -14 -1 -30 6 -37 16 -16 22 -44 35 -79 36 -15 1
-33 7 -41 14 -8 6 -18 9 -21 5 -4 -3 -12 -1 -19 4 -23 18 -68 25 -68 11 -1 -9
-4 -9 -13 2 -7 8 -19 17 -27 20 -29 9 -187 7 -204 -2z m595 -272 c1 -6 1 -15
0 -19 -1 -4 6 -10 14 -13 18 -7 20 -33 3 -30 -26 4 -35 16 -31 43 5 26 4 27
-9 10 -11 -15 -20 -17 -48 -10 -45 12 -50 31 -8 35 45 4 78 -2 79 -16z m-654
-388 c-3 -8 -6 -5 -6 6 -1 11 2 17 5 13 3 -3 4 -12 1 -19z m-212 -1 c-28 -16
-44 -17 -52 -5 -3 6 -1 8 5 4 6 -3 13 -3 16 2 2 4 15 8 28 9 22 2 22 1 3 -10z
m-114 -30 c-10 -9 -11 -8 -5 6 3 10 9 15 12 12 3 -3 0 -11 -7 -18z m139 -28
c0 -17 -4 -28 -9 -24 -5 3 -8 17 -5 31 3 18 1 23 -7 18 -8 -4 -9 -3 -5 5 12
19 26 2 26 -30z m-53 9 c-3 -8 -6 -5 -6 6 -1 11 2 17 5 13 3 -3 4 -12 1 -19z
m-124 -6 c-10 -10 -20 -17 -22 -16 -6 5 20 34 30 34 5 0 1 -8 -8 -18z m637 -3
c0 -4 -7 -6 -15 -3 -8 4 -15 10 -15 15 0 4 7 6 15 3 8 -4 15 -10 15 -15z
m-520 -32 c0 -18 2 -19 10 -7 5 8 10 11 10 5 0 -5 -4 -16 -9 -23 -6 -10 -11
-5 -20 19 -14 39 -14 42 -1 34 6 -3 10 -16 10 -28z m537 1 c-3 -8 -6 -5 -6 6
-1 11 2 17 5 13 3 -3 4 -12 1 -19z m37 -1 c-5 -15 -3 -17 7 -11 22 14 36 13
36 -2 0 -10 -4 -11 -14 -3 -10 9 -14 7 -19 -6 -6 -15 -9 -15 -20 6 -17 31 -17
36 1 36 11 0 13 -6 9 -20z m-644 3 c0 -5 -5 -10 -11 -10 -5 0 -7 5 -4 10 3 6
8 10 11 10 2 0 4 -4 4 -10z m-41 -46 c1 24 14 13 18 -15 2 -12 -1 -18 -7 -14
-5 3 -10 -2 -11 -12 0 -16 -1 -16 -9 2 -8 19 -9 19 -9 -3 -1 -13 -5 -21 -11
-17 -5 3 -7 12 -4 19 3 8 1 17 -5 21 -7 4 -5 14 6 30 l18 23 6 -26 c5 -19 7
-21 8 -8z m83 -21 c-7 -36 -12 -27 -11 20 0 30 3 36 8 23 4 -11 6 -30 3 -43z
m-137 -10 c3 -13 3 -34 -1 -48 -4 -16 -2 -25 6 -25 7 0 10 7 6 15 -3 8 -1 15
4 15 6 0 10 -10 10 -22 1 -21 2 -20 16 7 8 17 12 22 9 12 -7 -27 5 -72 16 -56
6 11 9 10 15 -4 9 -24 0 -31 -25 -17 -13 6 -19 16 -15 23 4 7 1 6 -7 -1 -12
-12 -11 -16 9 -29 12 -9 21 -25 21 -37 -1 -17 -2 -17 -6 -3 -3 11 -12 16 -26
13 -12 -1 -16 -1 -9 1 16 6 15 11 -2 29 -11 11 -16 11 -20 1 -4 -6 -4 -2 -2
11 2 12 0 22 -5 22 -5 0 -9 14 -9 30 0 25 -4 30 -25 30 -17 0 -25 5 -24 18 0
10 3 12 6 5 5 -14 53 -18 53 -4 0 4 -10 21 -22 36 -21 27 -21 27 0 14 11 -7
23 -23 27 -36z m772 15 c-3 -8 -6 -5 -6 6 -1 11 2 17 5 13 3 -3 4 -12 1 -19z
m-587 -2 c0 -3 -4 -8 -10 -11 -5 -3 -10 -1 -10 4 0 6 5 11 10 11 6 0 10 -2 10
-4z m563 -16 c-3 -11 -9 -20 -14 -20 -11 0 -11 3 -3 24 9 23 23 20 17 -4z
m-602 -27 c-12 -20 -14 -14 -5 12 4 9 9 14 11 11 3 -2 0 -13 -6 -23z m636 -25
c-2 -13 -4 -5 -4 17 -1 22 1 32 4 23 2 -10 2 -28 0 -40z m24 4 c-4 -54 -11
-53 -11 3 0 27 3 45 7 41 4 -4 6 -24 4 -44z m-618 23 c-3 -9 -8 -14 -10 -11
-3 3 -2 9 2 15 9 16 15 13 8 -4z m644 -5 c-4 -27 -17 -38 -17 -13 0 18 8 33
17 33 1 0 2 -9 0 -20z m-867 -42 c0 -4 -6 -5 -14 -2 -8 3 -12 12 -9 21 5 12 7
12 14 1 5 -7 9 -16 9 -20z m880 -8 c0 -5 -8 -10 -17 -10 -15 0 -16 2 -3 10 19
12 20 12 20 0z m-897 -13 c3 -8 -1 -14 -8 -14 -7 0 -11 6 -8 14 3 7 6 13 8 13
2 0 5 -6 8 -13z m157 -8 c0 -6 -4 -7 -10 -4 -5 3 -10 11 -10 16 0 6 5 7 10 4
6 -3 10 -11 10 -16z m66 -29 c8 0 14 -5 14 -10 0 -7 -6 -7 -20 0 -11 6 -19 18
-19 28 1 16 2 16 6 0 2 -10 11 -18 19 -18z m129 -10 c3 -6 -1 -7 -9 -4 -18 7
-21 14 -7 14 6 0 13 -4 16 -10z m-368 -77 c-3 -10 -5 -2 -5 17 0 19 2 27 5 18
2 -10 2 -26 0 -35z m113 29 c0 -14 -2 -14 -9 -3 -7 11 -10 10 -13 -5 -4 -18
-4 -18 -9 1 -5 16 -1 21 12 22 12 1 19 -5 19 -15z m-213 -144 c-3 -7 -5 -2 -5
12 0 14 2 19 5 13 2 -7 2 -19 0 -25z m83 22 c0 -5 -5 -10 -11 -10 -5 0 -7 5
-4 10 3 6 8 10 11 10 2 0 4 -4 4 -10z m-33 -22 c0 -13 -1 -17 -4 -9 -5 11 -7
11 -14 0 -7 -11 -9 -11 -9 3 0 9 6 19 13 21 6 3 12 6 12 6 1 1 1 -9 2 -21z
m855 -220 c-6 -6 -16 -7 -22 -3 -9 6 -9 9 1 16 17 10 34 0 21 -13z m-814 -216
c2 -7 -2 -10 -12 -6 -9 3 -16 11 -16 16 0 13 23 5 28 -10z m688 -29 c-10 -10
-19 5 -10 18 6 11 8 11 12 0 2 -7 1 -15 -2 -18z m-589 -15 c-3 -8 -6 -5 -6 6
-1 11 2 17 5 13 3 -3 4 -12 1 -19z m-97 -5 c0 5 5 5 10 2 6 -4 8 -11 4 -16 -7
-12 -34 8 -34 25 0 6 5 4 10 -4 5 -8 10 -11 10 -7z m60 -33 c0 -15 -7 -20 -25
-20 -14 0 -25 4 -25 9 0 6 9 8 20 6 13 -2 20 2 20 11 0 8 2 14 5 14 3 0 5 -9
5 -20z m558 -65 c-3 -3 -9 2 -12 12 -6 14 -5 15 5 6 7 -7 10 -15 7 -18z m-548
7 c0 -5 -7 -9 -15 -9 -8 0 -15 4 -15 9 0 4 7 8 15 8 8 0 15 -4 15 -8z m-43
-34 c-3 -7 -5 -2 -5 12 0 14 2 19 5 13 2 -7 2 -19 0 -25z m20 -10 c-3 -8 -6
-5 -6 6 -1 11 2 17 5 13 3 -3 4 -12 1 -19z m34 -28 c5 0 9 -8 8 -17 0 -12 -2
-13 -6 -5 -4 10 -8 9 -17 -4 -10 -13 -15 -14 -21 -4 -5 9 -4 11 3 6 8 -5 12 6
13 36 2 30 3 35 6 16 2 -16 9 -28 14 -28z m52 -7 c-3 -7 -9 -10 -14 -7 -5 3
-6 10 -3 16 4 7 2 8 -4 4 -7 -4 -17 -4 -24 0 -8 5 -6 10 7 14 22 8 45 -9 38
-27z m523 10 c-10 -10 -19 5 -10 18 6 11 8 11 12 0 2 -7 1 -15 -2 -18z m-614
-5 c-5 -7 -12 -22 -15 -33 -5 -20 -5 -20 -6 1 0 11 4 25 11 32 16 16 23 15 10
0z m587 -15 c0 -5 -4 -17 -9 -28 -7 -17 -9 -17 -9 -2 -1 9 -5 17 -11 17 -5 0
-10 5 -10 10 0 6 9 10 20 10 11 0 20 -3 19 -7z m-52 -35 c-3 -7 -5 -2 -5 12 0
14 2 19 5 13 2 -7 2 -19 0 -25z m-497 -36 c0 -2 -7 -2 -15 2 -19 7 -19 2 1
-32 11 -19 12 -22 1 -9 -8 9 -22 17 -31 17 -9 0 -16 8 -16 18 0 13 2 14 9 4 7
-11 9 -11 14 2 4 9 2 16 -4 16 -6 0 -8 4 -4 10 5 8 45 -17 45 -28z m457 1 c-3
-10 -5 -4 -5 12 0 17 2 24 5 18 2 -7 2 -21 0 -30z m20 15 c-3 -8 -6 -5 -6 6
-1 11 2 17 5 13 3 -3 4 -12 1 -19z m-587 -28 c-5 -22 -8 -27 -9 -13 -1 12 -7
24 -13 26 -8 3 -6 6 5 6 9 1 17 6 17 13 0 6 2 9 4 7 3 -2 1 -20 -4 -39z m633
23 c-7 -2 -19 -2 -25 0 -7 3 -2 5 12 5 14 0 19 -2 13 -5z m-653 -33 c0 -5 -4
-10 -9 -10 -6 0 -13 5 -16 10 -3 6 1 10 9 10 9 0 16 -4 16 -10z m-48 -52 c-8
-8 -9 -4 -5 13 4 13 8 18 11 10 2 -7 -1 -18 -6 -23z m35 10 c-3 -8 -6 -5 -6 6
-1 11 2 17 5 13 3 -3 4 -12 1 -19z m-20 -190 c-3 -7 -5 -2 -5 12 0 14 2 19 5
13 2 -7 2 -19 0 -25z m38 22 c3 -5 2 -10 -4 -10 -5 0 -13 5 -16 10 -3 6 -2 10
4 10 5 0 13 -4 16 -10z m875 -180 c18 -16 40 -30 49 -31 10 0 11 -2 4 -6 -7
-2 -13 -11 -13 -18 0 -7 -12 -21 -27 -31 -16 -9 -33 -24 -39 -33 -10 -13 -13
-13 -25 0 -8 8 -15 29 -16 47 -1 18 -9 42 -17 54 -11 16 -13 25 -4 35 18 22
54 15 88 -17z m-900 -130 c0 -5 -5 -10 -11 -10 -5 0 -7 5 -4 10 3 6 8 10 11
10 2 0 4 -4 4 -10z m1383 -107 c-7 -2 -19 -2 -25 0 -7 3 -2 5 12 5 14 0 19 -2
13 -5z m44 1 c-3 -3 -12 -4 -19 -1 -8 3 -5 6 6 6 11 1 17 -2 13 -5z m-1534
-45 c-8 -8 -13 -7 -18 2 -5 8 -4 10 3 5 7 -4 12 -2 12 5 0 7 3 9 7 6 4 -4 2
-12 -4 -18z m634 -611 c-3 -7 -5 -2 -5 12 0 14 2 19 5 13 2 -7 2 -19 0 -25z"/>
<path d="M2251 1294 c0 -11 3 -14 6 -6 3 7 2 16 -1 19 -3 4 -6 -2 -5 -13z"/>
<path d="M2705 3180 c3 -5 8 -10 11 -10 2 0 4 5 4 10 0 6 -5 10 -11 10 -5 0
-7 -4 -4 -10z"/>
<path d="M2310 2596 c0 -23 16 -27 17 -5 1 10 -2 19 -8 19 -5 0 -9 -6 -9 -14z"/>
<path d="M1275 2380 c-3 -5 -1 -10 4 -10 6 0 11 5 11 10 0 6 -2 10 -4 10 -3 0
-8 -4 -11 -10z"/>
<path d="M2840 2299 c0 -5 5 -7 10 -4 6 3 10 8 10 11 0 2 -4 4 -10 4 -5 0 -10
-5 -10 -11z"/>
<path d="M2804 2279 c-3 -6 -22 -9 -40 -7 -19 2 -34 0 -34 -4 0 -4 11 -8 25
-8 18 0 23 -4 19 -15 -4 -8 -2 -15 4 -15 5 0 12 6 15 14 7 17 43 10 51 -9 3
-9 0 -12 -10 -8 -10 4 -14 -2 -14 -20 0 -14 7 -27 15 -31 8 -3 15 -13 15 -23
1 -17 1 -17 11 -1 12 22 2 83 -17 99 -8 6 -14 18 -14 25 0 17 -16 18 -26 3z"/>
<path d="M1261 2204 c0 -11 3 -14 6 -6 3 7 2 16 -1 19 -3 4 -6 -2 -5 -13z"/>
<path d="M1280 2175 c0 -8 4 -15 10 -15 5 0 7 7 4 15 -4 8 -8 15 -10 15 -2 0
-4 -7 -4 -15z"/>
<path d="M1256 2157 c3 -10 9 -15 12 -12 3 3 0 11 -7 18 -10 9 -11 8 -5 -6z"/>
<path d="M1241 2104 c0 -11 3 -14 6 -6 3 7 2 16 -1 19 -3 4 -6 -2 -5 -13z"/>
<path d="M1277 2043 c-16 -60 -17 -77 -5 -84 10 -7 9 -9 -4 -9 -11 0 -18 -8
-18 -20 0 -11 5 -20 10 -20 6 0 9 3 9 8 -3 19 2 26 11 12 7 -11 9 -9 8 10 -1
14 -7 28 -13 33 -6 4 -7 10 0 15 6 4 11 22 13 40 3 34 -4 43 -11 15z"/>
<path d="M1208 1933 c7 -3 16 -2 19 1 4 3 -2 6 -13 5 -11 0 -14 -3 -6 -6z"/>
<path d="M2900 1891 c0 -5 5 -13 10 -16 6 -3 10 -2 10 4 0 5 -4 13 -10 16 -5
3 -10 2 -10 -4z"/>
<path d="M1301 1864 c0 -11 3 -14 6 -6 3 7 2 16 -1 19 -3 4 -6 -2 -5 -13z"/>
<path d="M2087 1763 c3 -7 8 -13 12 -13 4 0 8 6 8 13 0 8 -6 14 -13 14 -7 0
-10 -6 -7 -14z"/>
<path d="M2488 1683 c7 -3 16 -2 19 1 4 3 -2 6 -13 5 -11 0 -14 -3 -6 -6z"/>
<path d="M2758 1600 c-4 -24 -3 -51 1 -58 13 -24 19 0 12 53 l-7 50 -6 -45z"/>
<path d="M1301 1564 c0 -11 3 -14 6 -6 3 7 2 16 -1 19 -3 4 -6 -2 -5 -13z"/>
<path d="M2727 1493 c-4 -3 -7 -15 -7 -26 0 -13 5 -17 16 -13 9 3 18 6 20 6
14 0 1 20 -13 21 -15 0 -15 2 2 9 15 6 16 9 4 9 -9 1 -19 -2 -22 -6z"/>
<path d="M2710 1421 c0 -6 5 -13 10 -16 6 -3 10 1 10 9 0 9 -4 16 -10 16 -5 0
-10 -4 -10 -9z"/>
<path d="M2715 1282 c-6 -4 -12 -16 -12 -27 -1 -11 -3 -25 -5 -32 -3 -12 0
-13 33 -13 17 0 20 4 16 22 -4 14 0 29 10 40 15 17 15 18 -8 18 -13 0 -29 -4
-34 -8z"/>
<path d="M2625 1119 c-4 -6 -5 -12 -2 -15 2 -3 7 2 10 11 7 17 1 20 -8 4z"/>
</g>
</svg>
